<svg id="visual" viewBox="0 0 1980 1080" width="1980" height="1080" xmlns="http://www.w3.org/2000/svg" xmlns:xlink="http://www.w3.org/1999/xlink" version="1.1"><path d="M0 260L220 260L220 357L440 357L440 163L660 163L660 465L880 465L880 368L1100 368L1100 368L1320 368L1320 401L1540 401L1540 174L1760 174L1760 249L1980 249L1980 260L1980 0L1980 0L1760 0L1760 0L1540 0L1540 0L1320 0L1320 0L1100 0L1100 0L880 0L880 0L660 0L660 0L440 0L440 0L220 0L220 0L0 0Z" fill="#f4eae9"></path><path d="M0 552L220 552L220 563L440 563L440 401L660 401L660 584L880 584L880 692L1100 692L1100 627L1320 627L1320 465L1540 465L1540 303L1760 303L1760 519L1980 519L1980 465L1980 258L1980 247L1760 247L1760 172L1540 172L1540 399L1320 399L1320 366L1100 366L1100 366L880 366L880 463L660 463L660 161L440 161L440 355L220 355L220 258L0 258Z" fill="#d9d1d1"></path><path d="M0 714L220 714L220 627L440 627L440 573L660 573L660 671L880 671L880 779L1100 779L1100 800L1320 800L1320 552L1540 552L1540 455L1760 455L1760 617L1980 617L1980 606L1980 463L1980 517L1760 517L1760 301L1540 301L1540 463L1320 463L1320 625L1100 625L1100 690L880 690L880 582L660 582L660 399L440 399L440 561L220 561L220 550L0 550Z" fill="#beb9b9"></path><path d="M0 1027L220 1027L220 897L440 897L440 897L660 897L660 930L880 930L880 995L1100 995L1100 930L1320 930L1320 833L1540 833L1540 908L1760 908L1760 865L1980 865L1980 962L1980 604L1980 615L1760 615L1760 453L1540 453L1540 550L1320 550L1320 798L1100 798L1100 777L880 777L880 669L660 669L660 571L440 571L440 625L220 625L220 712L0 712Z" fill="#a4a2a2"></path><path d="M0 1081L220 1081L220 1081L440 1081L440 1081L660 1081L660 1081L880 1081L880 1081L1100 1081L1100 1081L1320 1081L1320 1081L1540 1081L1540 1081L1760 1081L1760 1081L1980 1081L1980 1081L1980 960L1980 863L1760 863L1760 906L1540 906L1540 831L1320 831L1320 928L1100 928L1100 993L880 993L880 928L660 928L660 895L440 895L440 895L220 895L220 1025L0 1025Z" fill="#8b8b8b"></path></svg>